<svg width="300" height="300" viewBox="0 0 300 300" fill="none" xmlns="http://www.w3.org/2000/svg">
  <style>
    :root {
      --c-dark: #18181B;
      --c-light: #f4f4f5;
    }
    rect {
      fill: var(--c-light);
    }
    path {
      fill: var(--c-dark);
    }
    @media (prefers-color-scheme: dark) {
      rect {
        fill: var(--c-dark);
      }
      path {
        fill: var(--c-light);
      }
    }
  </style>
  <rect x="11.9918" y="11.9918" width="276.016" height="276.016" rx="70"
  />
  <path
    d="M238.586 233.5H192.287C183.368 219.696 173.442 206.007 162.507 192.436C151.649 178.786 140.249 165.563 128.306 152.767H125.281V210.234C125.281 212.793 125.746 215.081 126.677 217.098C127.685 219.114 129.469 220.743 132.028 221.983C133.269 222.526 135.557 223.185 138.892 223.961C142.304 224.736 145.135 225.163 147.384 225.241V233.5H78.8656V225.241C80.6493 225.085 83.2474 224.853 86.6597 224.543C90.0721 224.232 92.4762 223.767 93.8722 223.147C96.1987 222.138 97.8661 220.665 98.8743 218.726C99.9601 216.71 100.503 214.306 100.503 211.514V92.3921C100.503 89.7553 100.038 87.4675 99.107 85.5287C98.2539 83.5898 96.509 82 93.8722 80.7591C91.7782 79.751 89.2965 78.8591 86.4271 78.0836C83.5576 77.308 81.0371 76.8427 78.8656 76.6876V68.4282H147.384V76.6876C145.212 76.7652 142.498 77.1141 139.241 77.7346C135.983 78.355 133.579 78.9366 132.028 79.4795C129.391 80.4102 127.608 81.9612 126.677 84.1327C125.746 86.3042 125.281 88.6696 125.281 91.2288V148.23H127.608C134.588 142.336 141.451 136.21 148.198 129.85C154.945 123.413 161.072 117.015 166.578 110.656C172.705 103.599 177.164 97.9759 179.956 93.7881C182.826 89.5226 184.26 85.7613 184.26 82.5041C184.26 81.3408 183.524 80.4102 182.05 79.7122C180.654 78.9366 179.025 78.3162 177.164 77.8509C174.993 77.3856 173.054 77.1141 171.348 77.0366C169.642 76.8815 168.246 76.7652 167.16 76.6876V68.4282H229.047V76.6876C228.815 76.6876 228.31 76.7264 227.535 76.8039C226.759 76.8815 225.868 76.959 224.859 77.0366C223.774 77.1141 222.688 77.2693 221.602 77.5019C220.516 77.7346 219.12 78.006 217.414 78.3162C214.7 78.9366 211.869 79.9448 208.922 81.3408C206.053 82.6592 203.687 84.3266 201.826 86.343C193.838 95.4167 185.501 104.801 176.815 114.495C168.129 124.189 159.521 133.03 150.99 141.018C162.778 154.357 172.511 165.835 180.189 175.451C187.944 185.068 196.165 195.344 204.851 206.279C208.185 210.467 211.52 213.84 214.855 216.4C218.19 218.881 221.059 220.743 223.463 221.983C225.48 222.992 228 223.767 231.025 224.31C234.049 224.853 236.57 225.163 238.586 225.241V233.5Z"
  />
</svg>
