<svg xmlns="http://www.w3.org/2000/svg" xmlns:xlink="http://www.w3.org/1999/xlink" width="194px" height="50px" viewBox="0 0 194 50" version="1.1">
	<!-- Generator: Sketch 47.1 (45422) - http://www.bohemiancoding.com/sketch -->
	<title>logo</title>
	<desc>Created with Sketch.</desc>
	<defs/>
	<g id="Page-1" stroke="none" stroke-width="1" fill="none" fill-rule="evenodd">
		<g id="nettle.sk---desktop" transform="translate(-162.000000, -82.000000)">
			<g id="logo" transform="translate(163.000000, 80.000000)">
				<path d="M50.7393777,8.21613614 C73.6382538,5.10925724 101.592582,9.38544875 124.710491,6.57272402 C152.450212,2.80914429 155.062011,2.92800116 182.798413,3.03756197 C182.796201,4.97313624 182.161227,7.19157658 182.790669,8.84627678 C185.125912,14.9889861 186.570643,12.6662969 186.565112,16.5381095 C186.5629,18.4743477 184.258631,18.4079472 186.565112,20.3534816 C186.8472,23.6376498 184.381422,21.4218655 187.592796,24.3063027 C189.805248,26.2930054 187.390357,24.3521191 189.695731,27.2651085 C192.005531,30.179426 187.672444,29.3434438 189.394838,32.3958743 C190.553057,34.4489775 188.781989,36.0034129 191.094001,36.012709 C193.39827,37.9608994 190.228932,40.5352463 191.086257,41.8240798 C192.121685,43.3824993 189.932464,44.6155564 192,45.1952327 C191.997788,47.1321349 191.08847,47.00863 191.525429,47.8705084 C110.621598,49.4866963 85.3476549,52.8837453 4.45267367,49.6580096 C-4.79094993,48.6553622 2.15061758,44.8107738 9.08665396,41.9329766 C6.77685429,42.8931277 6.78017296,39.9874423 4.46484216,40.9475934 C4.46926706,38.043236 9.09882245,33.2218964 18.3479772,32.2896336 C16.0359651,32.2803375 13.7261654,32.2710414 11.4119408,32.2617453 C9.10214112,31.2856582 11.4163657,29.3580519 11.4185782,27.4231417 C13.8146634,27.3833014 12.3511266,27.3049488 12.1243503,26.4709587 C11.9528853,25.84281 12.127669,24.0898371 12.1298814,22.5998101 C12.1309876,21.2140319 11.4252155,22.581882 11.4263217,21.6144269 C11.4285342,20.6463077 9.88645528,18.0241524 11.4318529,17.7392943 C13.0425178,17.4424841 12.6287893,17.701446 13.4883268,17.8906874 L13.4927517,14.9889861 C12.1166067,14.6935039 16.060302,14.8561851 11.4362778,14.8375929 C13.7516086,13.8774419 13.7527148,12.9106507 13.7560335,10.9730845 C20.6898574,10.0321895 27.6214689,12.9650991 34.556399,10.0866379 C32.2465994,10.0773419 29.9345872,10.0687098 27.6258938,10.0594137 C32.2532367,5.23741018 43.8022351,9.15703107 50.7393777,8.21613614" id="Fill-1" stroke="#F9F47F" fill="#FFF600"/>
				<g id="logo-ai-outlines" transform="translate(13.000000, 0.000000)" fill="#000000">
					<path d="M19.7091731,19.7334884 C20.8143659,21.0227971 21.3669541,22.7725471 21.3669541,24.9827907 L21.3669541,42.8488372 L15.6107703,42.8488372 L15.6107703,25.7655814 C15.6107703,24.4762726 15.4035498,23.5630259 14.9891025,23.025814 C14.5746552,22.488602 13.9683432,22.22 13.1701484,22.22 C12.3412538,22.22 11.5737703,22.5269737 10.8676749,23.1409302 C10.1615795,23.7548868 9.47084437,24.6604591 8.79544876,25.8576744 L8.79544876,42.8488372 L3.03926502,42.8488372 L3.03926502,18.4902326 L8.05865724,18.4902326 L8.47310247,21.6674419 C9.36339668,20.4088309 10.3534504,19.4495382 11.4432933,18.7895349 C12.5331362,18.1295316 13.7687846,17.7995349 15.1502756,17.7995349 C17.084363,17.7995349 18.6039803,18.4441796 19.7091731,19.7334884 Z M45.2052297,32.4423256 L31.4364381,32.4423256 C31.6206369,34.8981518 32.1425257,36.6325531 33.0021201,37.6455814 C33.8617145,38.6586097 35.0589888,39.1651163 36.5939788,39.1651163 C37.5763724,39.1651163 38.4973526,38.9962808 39.356947,38.6586047 C40.2165414,38.3209285 41.1375216,37.7990733 42.1199152,37.0930233 L44.5144876,40.3623256 C42.0892034,42.4804757 39.3109132,43.5395349 36.1795336,43.5395349 C32.7718557,43.5395349 30.1470622,42.419081 28.3050742,40.1781395 C26.4630862,37.9371981 25.542106,34.8214153 25.542106,30.8306977 C25.542106,26.9013757 26.424712,23.7472212 28.1899505,21.3681395 C29.955189,18.9890579 32.418811,17.7995349 35.5808904,17.7995349 C38.6508705,17.7995349 41.045419,18.8585941 42.7646078,20.9767442 C44.4837966,23.0948943 45.3433781,26.1339337 45.3433781,30.0939535 C45.3433781,30.3702339 45.2973291,31.1530168 45.2052297,32.4423256 Z M39.6792933,28.4362791 C39.6792933,26.2260355 39.3569502,24.576052 38.7122544,23.4862791 C38.0675586,22.3965062 37.0391307,21.8516279 35.6269399,21.8516279 C34.3375483,21.8516279 33.3474946,22.3811575 32.6567491,23.4402326 C31.9660036,24.4993076 31.5592373,26.2567319 31.4364381,28.7125581 L39.6792933,28.7125581 L39.6792933,28.4362791 Z M62.5044805,41.6976744 C61.7062857,42.311631 60.8236797,42.7720915 59.856636,43.0790698 C58.8895923,43.386048 57.8995386,43.5395349 56.8864452,43.5395349 C54.6453598,43.5395349 52.9338716,42.8948902 51.7519293,41.6055814 C50.569987,40.3162726 49.9790247,38.5204766 49.9790247,36.2181395 L49.9790247,22.6344186 L46.7095123,22.6344186 L46.7095123,18.4902326 L49.9790247,18.4902326 L49.9790247,13.1027907 L55.7352085,12.412093 L55.7352085,18.4902326 L60.8466996,18.4902326 L60.2480565,22.6344186 L55.7352085,22.6344186 L55.7352085,36.172093 C55.7352085,37.0930279 55.9117297,37.7760443 56.2647774,38.2211628 C56.6178251,38.6662813 57.178088,38.8888372 57.945583,38.8888372 C58.7744776,38.8888372 59.6187095,38.6279096 60.4783039,38.1060465 L62.5044805,41.6976744 Z M77.8696537,41.6976744 C77.0714589,42.311631 76.1888528,42.7720915 75.2218091,43.0790698 C74.2547654,43.386048 73.2647117,43.5395349 72.2516183,43.5395349 C70.0105329,43.5395349 68.2990447,42.8948902 67.1171024,41.6055814 C65.9351601,40.3162726 65.3441978,38.5204766 65.3441978,36.2181395 L65.3441978,22.6344186 L62.0746855,22.6344186 L62.0746855,18.4902326 L65.3441978,18.4902326 L65.3441978,13.1027907 L71.1003816,12.412093 L71.1003816,18.4902326 L76.2118727,18.4902326 L75.6132296,22.6344186 L71.1003816,22.6344186 L71.1003816,36.172093 C71.1003816,37.0930279 71.2769028,37.7760443 71.6299505,38.2211628 C71.9829982,38.6662813 72.5432611,38.8888372 73.3107561,38.8888372 C74.1396507,38.8888372 74.9838826,38.6279096 75.843477,38.1060465 L77.8696537,41.6976744 Z M81.054742,41.9739535 C80.0569985,40.9302273 79.5581342,39.4721024 79.5581342,37.5995349 L79.5581342,8.72837209 L85.314318,8.12976744 L85.314318,37.4153488 C85.314318,38.3976793 85.728759,38.8888372 86.5576536,38.8888372 C86.9567511,38.8888372 87.3404928,38.8274425 87.7088904,38.7046512 L88.8601271,42.6646512 C87.8470337,43.2479099 86.6344098,43.5395349 85.222219,43.5395349 C83.4416306,43.5395349 82.0524855,43.0176796 81.054742,41.9739535 Z M110.211731,32.4423256 L96.4429399,32.4423256 C96.6271387,34.8981518 97.1490274,36.6325531 98.0086218,37.6455814 C98.8682162,38.6586097 100.06549,39.1651163 101.60048,39.1651163 C102.582874,39.1651163 103.503854,38.9962808 104.363449,38.6586047 C105.223043,38.3209285 106.144023,37.7990733 107.126417,37.0930233 L109.520989,40.3623256 C107.095705,42.4804757 104.317415,43.5395349 101.186035,43.5395349 C97.7783574,43.5395349 95.1535639,42.419081 93.3115759,40.1781395 C91.4695879,37.9371981 90.5486077,34.8214153 90.5486077,30.8306977 C90.5486077,26.9013757 91.4312137,23.7472212 93.1964522,21.3681395 C94.9616907,18.9890579 97.4253127,17.7995349 100.587392,17.7995349 C103.657372,17.7995349 106.051921,18.8585941 107.771109,20.9767442 C109.490298,23.0948943 110.34988,26.1339337 110.34988,30.0939535 C110.34988,30.3702339 110.303831,31.1530168 110.211731,32.4423256 Z M104.685795,28.4362791 C104.685795,26.2260355 104.363452,24.576052 103.718756,23.4862791 C103.07406,22.3965062 102.045632,21.8516279 100.633442,21.8516279 C99.34405,21.8516279 98.3539963,22.3811575 97.6632508,23.4402326 C96.9725053,24.4993076 96.5657391,26.2567319 96.4429399,28.7125581 L104.685795,28.7125581 L104.685795,28.4362791 Z" id="nettle"/>
					<path d="M159.817244,40.1052326 C159.887598,40.1052326 159.946225,40.146269 159.993127,40.228343 C160.04003,40.3104171 160.04003,40.3749029 159.993127,40.4218023 C159.219236,41.3363418 158.51571,42.0222361 157.882527,42.4795058 C157.249343,42.9367755 156.63962,43.165407 156.053339,43.165407 C155.513961,43.165407 155.115296,43.0071237 154.857332,42.6905523 C154.599369,42.373981 154.470389,41.8756817 154.470389,41.1956395 C154.470389,40.7031952 154.51729,40.2107583 154.611095,39.718314 L155.103569,36.9043605 C154.165519,38.8741378 153.057465,40.4335214 151.779373,41.5825581 C150.50128,42.7315949 149.264246,43.3061047 148.068233,43.3061047 C147.341245,43.3061047 146.778424,43.0891979 146.379753,42.6553779 C145.981082,42.2215579 145.781749,41.559113 145.781749,40.6680233 C145.781749,39.0499919 146.291806,37.3088756 147.311935,35.4446221 C148.332063,33.5803686 149.598411,32.0092603 151.111016,30.73125 C152.623621,29.4532397 154.059987,28.8142442 155.420159,28.8142442 C155.865732,28.8142442 156.305437,28.8904547 156.739284,29.0428779 C157.173132,29.1953011 157.542484,29.4239326 157.84735,29.7287791 C158.316375,29.3301337 158.656412,28.9314942 158.867473,28.5328488 C158.914376,28.4859494 158.961278,28.4625 159.00818,28.4625 C159.078534,28.4625 159.148887,28.480087 159.21924,28.5152616 C159.289594,28.5504362 159.313045,28.5797479 159.289594,28.6031977 L157.249346,39.718314 C157.178993,40.0700599 157.143816,40.3631771 157.143816,40.5976744 C157.143816,40.8790712 157.190718,41.1018403 157.284523,41.2659884 C157.378328,41.4301365 157.507308,41.5122093 157.671466,41.5122093 C158.11704,41.5122093 158.797116,41.0549464 159.711714,40.140407 C159.735165,40.1169572 159.770341,40.1052326 159.817244,40.1052326 Z M152.623613,39.5776163 C153.526486,38.6161774 154.282777,37.4671578 154.892509,36.1305233 C155.502241,34.7938887 155.807102,33.6448691 155.807102,32.6834302 C155.807102,31.9564886 155.631221,31.3878412 155.279452,30.9774709 C154.927684,30.5671007 154.42349,30.3619186 153.766855,30.3619186 C153.016416,30.3619186 152.289438,30.6608982 151.585901,31.2588663 C150.882364,31.8568344 150.278504,32.6775626 149.774302,33.7210756 C149.270101,34.7645886 148.912475,35.9311951 148.701413,37.2209302 C148.607608,37.7837237 148.560707,38.3230594 148.560707,38.8389535 C148.560707,40.2928367 149.04145,41.0197674 150.002951,41.0197674 C150.847195,41.0197674 151.72074,40.5390552 152.623613,39.5776163 Z M165.410336,24.6284884 C165.082018,24.3001922 164.917862,23.8429293 164.917862,23.256686 C164.917862,22.740792 165.087881,22.3245655 165.427924,22.0079942 C165.767967,21.6914228 166.219396,21.5331395 166.782226,21.5331395 C167.345056,21.5331395 167.778897,21.6914228 168.083763,22.0079942 C168.388629,22.3245655 168.54106,22.740792 168.54106,23.256686 C168.54106,23.8429293 168.388629,24.3001922 168.083763,24.6284884 C167.778897,24.9567846 167.345056,25.1209302 166.782226,25.1209302 C166.195945,25.1209302 165.738653,24.9567846 165.410336,24.6284884 Z M162.912792,41.3363372 C162.912792,40.8907923 162.983144,40.3514567 163.123852,39.718314 L164.566095,32.4020349 C164.636449,32.0737387 164.671625,31.7923461 164.671625,31.5578488 C164.671625,30.9012564 164.448842,30.5729651 164.003269,30.5729651 C163.440439,30.5729651 162.725187,31.0654021 161.857491,32.0502907 C161.83404,32.0737404 161.798864,32.0854651 161.751961,32.0854651 C161.658156,32.0854651 161.587804,32.0444287 161.540901,31.9623547 C161.493999,31.8802806 161.493999,31.8040701 161.540901,31.7337209 C162.385146,30.772282 163.141437,30.0688007 163.809797,29.6232558 C164.478157,29.177711 165.128919,28.9549419 165.762102,28.9549419 C166.793957,28.9549419 167.309876,29.5294516 167.309876,30.6784884 C167.309876,31.0302343 167.251249,31.4992219 167.133993,32.0854651 L165.691749,39.718314 C165.621395,40.0700599 165.586219,40.3631771 165.586219,40.5976744 C165.586219,41.2073674 165.785552,41.5122093 166.184223,41.5122093 C166.582894,41.5122093 167.262969,41.0666711 168.22447,40.1755814 C168.271372,40.1286819 168.318274,40.1052326 168.365177,40.1052326 C168.43553,40.1052326 168.494158,40.146269 168.54106,40.228343 C168.587963,40.3104171 168.576237,40.3866276 168.505883,40.4569767 C167.708541,41.3949659 166.993289,42.0808602 166.360106,42.5146802 C165.726923,42.9485002 165.093749,43.165407 164.460565,43.165407 C163.428711,43.165407 162.912792,42.5557232 162.912792,41.3363372 Z M170.651661,42.6729651 C170.323343,42.3446689 170.159187,41.8991307 170.159187,41.3363372 C170.159187,40.7969934 170.323343,40.3690423 170.651661,40.0524709 C170.979978,39.7358996 171.43727,39.5776163 172.023551,39.5776163 C172.586381,39.5776163 173.020222,39.7358996 173.325088,40.0524709 C173.629954,40.3690423 173.782385,40.7969934 173.782385,41.3363372 C173.782385,41.8991307 173.629954,42.3446689 173.325088,42.6729651 C173.020222,43.0012613 172.586381,43.165407 172.023551,43.165407 C171.43727,43.165407 170.979978,43.0012613 170.651661,42.6729651 Z" id="ai."/>
					<polygon id="1" points="118.321555 6.39534884 116.145437 21.744186 114.811687 21.744186 116.777213 7.94177304 113.080152 10.2498689 112.565371 9.25738766 117.198397 6.39534884"/>
					<ellipse id="Oval" cx="128.55477" cy="34.5348837" rx="6.39575972" ry="6.39534884"/>
				</g>
			</g>
		</g>
	</g>
</svg>